<svg id="Layer_1" enable-background="new 0 0 128 128" height="512" viewBox="0 0 128 128" width="512" xmlns="http://www.w3.org/2000/svg"><path d="m107.391 47.874 12.175-8.37c.271-.187.434-.495.434-.824v-.24c0-.553-.448-1-1-1h-27.847c3.307-8.932 1.007-14.57.879-14.869-.139-.325-.438-.553-.789-.599-.353-.048-.699.095-.917.373l-11.468 14.582c-3.75-.595-7.296-1.702-10.469-3.296-5.569-2.798-11.807-4.276-18.041-4.276h-4.234l-5.513-7.01c-.218-.278-.565-.421-.917-.373-.35.046-.65.273-.789.599-.083.194-1.079 2.641-.859 6.784h-25.036c-.552 0-1 .447-1 1v.458c0 .329.162.638.434.824l12.076 8.303c.199.137.228.331.227.435s-.031.297-.232.432l-12.063 8.103c-.276.186-.442.497-.442.83v.152c0 .553.448 1 1 1h35.236l9.943 12.328-5.26 6.688-.165-.14c-.207-.176-.475-.258-.747-.232-.27.027-.518.163-.686.377l-6.382 8.116c-7.702-5.206-18.358-3.63-24.18 3.742-2.934 3.716-4.212 8.418-3.6 13.239.628 4.948 3.247 9.502 7.184 12.492 2.185 1.66 4.795 2.534 7.493 2.534.567 0 1.138-.038 1.708-.116 3.29-.449 6.208-2.153 8.216-4.798l20.07-26.419c.321-.423.256-1.023-.15-1.367l-.189-.16 3.972-4.926 3.973 4.926-.189.16c-.406.344-.471.944-.15 1.367l20.07 26.42c2.442 3.215 6.156 4.906 9.913 4.906 2.621 0 5.261-.823 7.504-2.527 3.938-2.991 6.556-7.544 7.185-12.492.612-4.822-.667-9.523-3.6-13.238-5.821-7.373-16.479-8.949-24.18-3.743l-6.382-8.116c-.168-.214-.416-.35-.686-.377-.275-.025-.541.057-.747.232l-.165.14-5.261-6.69 4.114-5.101c2.685.558 5.422.86 8.161.86h33.977c.552 0 1-.447 1-1v-.235c0-.333-.166-.645-.442-.83l-12.162-8.171c-.201-.135-.231-.329-.232-.433s.028-.297.227-.434zm-69.021 38.776-5.599 7.37c-1.251 1.646-3.094 1.608-4.293 1.078-1.155-.513-2.373-1.805-2.006-3.762.245-1.308.781-2.513 1.593-3.582 2.258-2.972 6.276-4.142 9.771-2.841.351.131.612.408.714.763.058.198.112.589-.18.974zm54.005-.974c.103-.354.363-.632.714-.763 3.494-1.301 7.513-.132 9.771 2.841.812 1.069 1.348 2.274 1.593 3.582.367 1.957-.851 3.249-2.006 3.762-1.199.53-3.042.568-4.293-1.078v.001l-5.599-7.371c-.29-.385-.237-.776-.18-.974z" fill="#e6e7e8"/><path d="m61.463 51.576-2.957-3.761c-4.017-1.305-8.252-1.923-12.499-1.923h-1.293l10.743 13.32z" fill="#d4fbff"/><path d="m61.463 66.659 5.363 6.649 7.036-5.966-6.393-8.129z" fill="#d4fbff"/><path d="m41.628 26.355-5.813-7.392s-1.154 2.717-.691 7.392z" fill="#d4fbff"/><path d="m105.383 78.392c-5.719-7.243-16.21-8.599-23.59-2.993l-6.974-8.868-8.926 7.568 20.07 26.42c3.818 5.027 10.989 6.006 16.015 2.188 7.578-5.757 9.303-16.846 3.405-24.315zm-12.024 12.233-5.599-7.371c-.867-1.141-.362-2.779.981-3.278 3.838-1.427 8.311-.255 10.916 3.174.927 1.22 1.515 2.592 1.78 4.002.87 4.639-5.223 7.231-8.078 3.473z" fill="#0089ef"/><path d="m75.285 34.001c-3.937-.563-7.78-1.686-11.345-3.477-5.46-2.742-11.485-4.169-17.592-4.169h-37.348v.458l12.076 8.302c.887.609.88 1.921-.013 2.521l-12.063 8.105v.152h37.007c5.87 0 11.723 1.161 17 3.721z" fill="#fa759e"/><path d="m102.824 43.05 12.176-8.371v-.24h-29.327c-.876 2.09-2.064 4.348-3.669 6.753l-9.54 11.828c2.801.627 5.669.957 8.558.957h33.978v-.235l-12.162-8.171c-.893-.6-.9-1.911-.014-2.521z" fill="#fa759e"/><path d="m73.205 36.646 2.08-2.645c-3.937-.563-7.78-1.686-11.345-3.477-5.46-2.742-11.485-4.169-17.592-4.169h-37.348v.458l3.697 2.542h33.651c6.107 0 12.132 1.427 17.592 4.169 2.934 1.474 6.058 2.49 9.265 3.122z" fill="#fff"/><path d="m85.673 34.439c-.405.965-.875 1.965-1.424 3h26.736l4.014-2.76v-.24z" fill="#fff"/><path d="m87.112 18.963-38.048 48.38 7.036 5.966 25.904-32.116c8.903-13.338 5.108-22.23 5.108-22.23z" fill="#d4fbff"/><path d="m20.948 102.707c5.027 3.818 12.197 2.839 16.015-2.188l20.07-26.42-8.926-7.568-6.974 8.868c-7.38-5.606-17.871-4.25-23.59 2.993-5.897 7.469-4.173 18.558 3.405 24.315zm.541-15.555c.265-1.41.853-2.782 1.78-4.002 2.605-3.429 7.078-4.601 10.916-3.174 1.344.5 1.848 2.137.981 3.278l-5.599 7.371c-2.855 3.758-8.948 1.166-8.078-3.473z" fill="#0089ef"/><g fill="#3a2c60"><path d="m92.562 91.23c1.19 1.567 2.811 2.19 4.352 2.19.831 0 1.64-.182 2.345-.494 2.362-1.049 3.632-3.443 3.16-5.959-.303-1.615-.965-3.103-1.966-4.422-2.831-3.728-7.679-5.132-12.061-3.507-.951.354-1.657 1.112-1.938 2.08-.276.952-.091 1.95.509 2.74zm-4.187-9.554c.103-.354.363-.632.714-.763 3.494-1.301 7.513-.132 9.771 2.841.812 1.069 1.348 2.274 1.593 3.582.367 1.957-.851 3.249-2.006 3.762-1.199.53-3.042.568-4.293-1.078v.001l-5.599-7.371c-.29-.385-.237-.776-.18-.974z"/><path d="m103.391 43.874 12.175-8.37c.271-.187.434-.495.434-.824v-.24c0-.553-.448-1-1-1h-27.847c3.307-8.932 1.007-14.57.879-14.869-.139-.325-.438-.553-.789-.599-.353-.048-.699.095-.917.373l-11.458 14.57c-3.752-.593-7.305-1.689-10.479-3.283-5.569-2.798-11.807-4.276-18.041-4.276h-4.234l-5.513-7.01c-.218-.278-.565-.421-.917-.373-.35.046-.65.273-.789.599-.083.194-1.075 2.643-.855 6.784h-25.04c-.552 0-1 .447-1 1v.458c0 .329.162.638.434.824l12.076 8.303c.199.137.228.331.227.435s-.031.297-.232.432l-12.063 8.102c-.276.186-.442.497-.442.83v.152c0 .553.448 1 1 1h16.5c.552 0 1-.447 1-1s-.448-1-1-1h-13.445l9.564-6.427c.695-.466 1.113-1.244 1.117-2.081.005-.837-.404-1.619-1.094-2.094l-10.089-6.937h34.794c5.924 0 11.852 1.405 17.144 4.063 3.048 1.531 6.426 2.612 9.98 3.272l-10.766 13.692c-4.98-2.272-10.715-3.487-16.698-3.487h-5.173c-.552 0-1 .447-1 1s.448 1 1 1h3.402l9.943 12.328-5.26 6.688-.165-.14c-.207-.176-.475-.258-.747-.232-.27.027-.518.163-.686.377l-6.382 8.116c-7.702-5.206-18.358-3.63-24.18 3.742-2.934 3.716-4.212 8.418-3.6 13.239.628 4.948 3.247 9.502 7.184 12.492 2.185 1.66 4.795 2.534 7.493 2.534.567 0 1.138-.038 1.708-.116 3.29-.449 6.208-2.153 8.216-4.798l20.07-26.419c.321-.423.256-1.023-.15-1.367l-.189-.16 3.972-4.926 3.973 4.926-.189.16c-.406.344-.471.944-.15 1.367l20.07 26.42c2.442 3.215 6.156 4.906 9.913 4.906 2.621 0 5.261-.823 7.504-2.527 3.938-2.991 6.556-7.544 7.185-12.492.612-4.822-.667-9.523-3.6-13.238-5.821-7.373-16.479-8.949-24.18-3.743l-6.382-8.116c-.168-.214-.416-.35-.686-.377-.275-.025-.541.057-.747.232l-.165.14-5.261-6.69 4.114-5.101c2.685.558 5.422.86 8.161.86h33.977c.552 0 1-.447 1-1v-.235c0-.333-.166-.645-.442-.83l-12.162-8.171c-.201-.135-.231-.329-.232-.433s.028-.298.227-.435zm-67.117-22.709 3.295 4.189h-3.487c-.101-1.751.018-3.181.192-4.189zm-.107 78.749c-1.685 2.219-4.133 3.647-6.894 4.025-2.762.376-5.503-.344-7.721-2.028-3.512-2.669-5.849-6.733-6.41-11.152-.544-4.285.587-8.457 3.185-11.747 5.356-6.783 15.316-8.046 22.201-2.816.435.331 1.054.252 1.391-.178l6.332-8.053 7.412 6.284zm44.84-23.896c.338.43.957.509 1.391.178 6.885-5.229 16.844-3.967 22.201 2.817 2.598 3.29 3.729 7.461 3.185 11.746-.561 4.419-2.897 8.483-6.41 11.152-4.58 3.478-11.136 2.582-14.614-1.996l-19.497-25.666 7.412-6.284zm-34.189-29.104c3.879.075 7.629.68 11.102 1.775l2.271 2.887-4.745 6.033zm39.835-25.75c.547 3.151.715 10.192-5.428 19.4l-25.26 31.317-5.52-4.68zm-14.173 46.038-5.52 4.68-4.214-5.224 4.711-5.842zm29.8-20.8 9.789 6.576h-31.048c-2.257 0-4.511-.227-6.733-.63l8.547-10.599c1.488-2.23 2.628-4.337 3.501-6.309h25.794l-9.872 6.786c-.689.474-1.099 1.256-1.094 2.093.004.836.421 1.615 1.116 2.083z"/><path d="m36.231 46.893c.552 0 1-.447 1-1s-.448-1-1-1h-5.565c-.552 0-1 .447-1 1s.448 1 1 1z"/><path d="m58.523 65.247c0-1.103-.897-2.001-1.999-2.001-1.103 0-2.001.897-2.001 1.998 0 .535.207 1.038.585 1.416s.881.586 1.416.586c1.101 0 1.998-.897 1.999-1.999z"/><path d="m34.534 79.038c-4.382-1.626-9.229-.221-12.061 3.507-1.001 1.319-1.663 2.807-1.966 4.422-.472 2.516.798 4.91 3.16 5.959.706.313 1.514.494 2.345.494 1.542 0 3.162-.624 4.352-2.19l5.599-7.371c.6-.79.785-1.788.509-2.74-.282-.968-.988-1.726-1.938-2.081zm-.164 3.612-5.599 7.37c-1.251 1.646-3.094 1.608-4.293 1.078-1.155-.513-2.373-1.805-2.006-3.762.245-1.308.781-2.513 1.593-3.582 2.258-2.972 6.276-4.142 9.771-2.841.351.131.612.408.714.763.058.198.112.589-.18.974z"/></g></svg>