<svg width="788" height="454" viewBox="0 0 788 454" fill="none" xmlns="http://www.w3.org/2000/svg">
<rect width="788" height="454" fill="#E5E5E5"/>
<g clip-path="url(#clip0)">
<rect width="787.827" height="453.112" fill="white"/>
<path d="M406.691 12.9338C410.263 12.9338 413.158 10.0385 413.158 6.46689C413.158 2.89533 410.263 0 406.691 0C403.12 0 400.224 2.89533 400.224 6.46689C400.224 10.0385 403.12 12.9338 406.691 12.9338Z" fill="#F2F2F2"/>
<path d="M406.691 38.7071C410.263 38.7071 413.158 35.8118 413.158 32.2402C413.158 28.6686 410.263 25.7733 406.691 25.7733C403.12 25.7733 400.224 28.6686 400.224 32.2402C400.224 35.8118 403.12 38.7071 406.691 38.7071Z" fill="#F2F2F2"/>
<path d="M433.691 12.9338C437.263 12.9338 440.158 10.0385 440.158 6.46689C440.158 2.89533 437.263 0 433.691 0C430.12 0 427.224 2.89533 427.224 6.46689C427.224 10.0385 430.12 12.9338 433.691 12.9338Z" fill="#F2F2F2"/>
<path d="M433.691 38.7071C437.263 38.7071 440.158 35.8118 440.158 32.2402C440.158 28.6686 437.263 25.7733 433.691 25.7733C430.12 25.7733 427.224 28.6686 427.224 32.2402C427.224 35.8118 430.12 38.7071 433.691 38.7071Z" fill="#F2F2F2"/>
<path d="M460.691 12.9338C464.263 12.9338 467.158 10.0385 467.158 6.46689C467.158 2.89533 464.263 0 460.691 0C457.12 0 454.224 2.89533 454.224 6.46689C454.224 10.0385 457.12 12.9338 460.691 12.9338Z" fill="#F2F2F2"/>
<path d="M460.691 38.7071C464.263 38.7071 467.158 35.8118 467.158 32.2402C467.158 28.6686 464.263 25.7733 460.691 25.7733C457.12 25.7733 454.224 28.6686 454.224 32.2402C454.224 35.8118 457.12 38.7071 460.691 38.7071Z" fill="#F2F2F2"/>
<path d="M460.691 64.4804C464.263 64.4804 467.158 61.5851 467.158 58.0135C467.158 54.4419 464.263 51.5466 460.691 51.5466C457.12 51.5466 454.224 54.4419 454.224 58.0135C454.224 61.5851 457.12 64.4804 460.691 64.4804Z" fill="#F2F2F2"/>
<path d="M460.691 90.2537C464.263 90.2537 467.158 87.3584 467.158 83.7868C467.158 80.2152 464.263 77.3199 460.691 77.3199C457.12 77.3199 454.224 80.2152 454.224 83.7868C454.224 87.3584 457.12 90.2537 460.691 90.2537Z" fill="#F2F2F2"/>
<path d="M487.691 12.9338C491.263 12.9338 494.158 10.0385 494.158 6.46689C494.158 2.89533 491.263 0 487.691 0C484.12 0 481.224 2.89533 481.224 6.46689C481.224 10.0385 484.12 12.9338 487.691 12.9338Z" fill="#F2F2F2"/>
<path d="M487.691 38.7071C491.263 38.7071 494.158 35.8118 494.158 32.2402C494.158 28.6686 491.263 25.7733 487.691 25.7733C484.12 25.7733 481.224 28.6686 481.224 32.2402C481.224 35.8118 484.12 38.7071 487.691 38.7071Z" fill="#F2F2F2"/>
<path d="M487.691 64.4804C491.263 64.4804 494.158 61.5851 494.158 58.0135C494.158 54.4419 491.263 51.5466 487.691 51.5466C484.12 51.5466 481.224 54.4419 481.224 58.0135C481.224 61.5851 484.12 64.4804 487.691 64.4804Z" fill="#F2F2F2"/>
<path d="M487.691 90.2537C491.263 90.2537 494.158 87.3584 494.158 83.7868C494.158 80.2152 491.263 77.3199 487.691 77.3199C484.12 77.3199 481.224 80.2152 481.224 83.7868C481.224 87.3584 484.12 90.2537 487.691 90.2537Z" fill="#F2F2F2"/>
<path d="M514.691 12.9338C518.263 12.9338 521.158 10.0385 521.158 6.46689C521.158 2.89533 518.263 0 514.691 0C511.12 0 508.224 2.89533 508.224 6.46689C508.224 10.0385 511.12 12.9338 514.691 12.9338Z" fill="#F2F2F2"/>
<path d="M514.691 38.7071C518.263 38.7071 521.158 35.8118 521.158 32.2402C521.158 28.6686 518.263 25.7733 514.691 25.7733C511.12 25.7733 508.224 28.6686 508.224 32.2402C508.224 35.8118 511.12 38.7071 514.691 38.7071Z" fill="#F2F2F2"/>
<path d="M541.691 12.9338C545.263 12.9338 548.158 10.0385 548.158 6.46689C548.158 2.89533 545.263 0 541.691 0C538.12 0 535.224 2.89533 535.224 6.46689C535.224 10.0385 538.12 12.9338 541.691 12.9338Z" fill="#F2F2F2"/>
<path d="M541.691 38.7071C545.263 38.7071 548.158 35.8118 548.158 32.2402C548.158 28.6686 545.263 25.7733 541.691 25.7733C538.12 25.7733 535.224 28.6686 535.224 32.2402C535.224 35.8118 538.12 38.7071 541.691 38.7071Z" fill="#F2F2F2"/>
<path d="M739.114 341.258H691.104C691.104 342.638 641.624 343.758 641.624 343.758C640.848 344.343 640.14 345.014 639.515 345.758C637.635 348 636.608 350.833 636.614 353.758V355.758C636.615 359.073 637.933 362.252 640.277 364.596C642.621 366.94 645.799 368.257 649.114 368.258H739.114C742.428 368.255 745.606 366.938 747.95 364.594C750.293 362.25 751.611 359.073 751.614 355.758V353.758C751.61 350.445 750.291 347.268 747.948 344.925C745.605 342.581 742.428 341.263 739.114 341.258V341.258Z" fill="#3F3D56"/>
<path d="M701.109 367.762H688.109V451.762H701.109V367.762Z" fill="#3F3D56"/>
<path d="M738.109 451.305C738.109 452.71 718.41 451.848 694.109 451.848C669.809 451.848 650.109 452.71 650.109 451.305C650.109 449.9 669.809 438.762 694.109 438.762C718.41 438.762 738.109 449.9 738.109 451.305Z" fill="#3F3D56"/>
<path d="M629.1 440.257L616.84 440.256L611.007 392.968L629.102 392.969L629.1 440.257Z" fill="#FFB8B8"/>
<path d="M608.083 436.753H631.727V451.64H593.196C593.196 447.692 594.764 443.905 597.556 441.113C600.348 438.322 604.134 436.753 608.083 436.753V436.753Z" fill="#2F2E41"/>
<path d="M609.962 433.414L598.265 429.743L606.857 382.878L624.121 388.296L609.962 433.414Z" fill="#FFB8B8"/>
<path d="M590.958 423.779L613.517 430.859L609.06 445.063L572.297 433.526C572.882 431.661 573.829 429.929 575.084 428.429C576.339 426.93 577.876 425.693 579.609 424.788C581.342 423.883 583.236 423.328 585.183 423.155C587.131 422.982 589.093 423.194 590.958 423.779V423.779Z" fill="#2F2E41"/>
<path d="M706.28 333.061C705.997 330.678 705.488 328.328 704.761 326.041L702.47 323.161L696.511 315.681L696.251 315.691C695.81 315.711 693.98 315.811 691.151 316.031H691.12C689.37 316.171 687.23 316.351 684.801 316.581C684.16 316.651 683.49 316.711 682.801 316.781V327.221H695.301C695.908 327.222 696.494 327.443 696.951 327.845C697.407 328.246 697.702 328.799 697.781 329.401C697.79 329.511 697.801 329.611 697.801 329.721C697.8 330.384 697.537 331.02 697.068 331.489C696.599 331.957 695.964 332.221 695.301 332.221H622.7C621.775 332.835 620.887 333.503 620.04 334.221C617.483 336.201 615.64 338.96 614.79 342.081C610.551 360.721 602.821 395.481 600.54 405.691C600.375 406.46 600.413 407.259 600.649 408.01C600.886 408.76 601.314 409.436 601.89 409.971C602.316 410.368 602.816 410.677 603.361 410.881L612.381 414.261C612.751 414.398 613.138 414.489 613.53 414.531C613.58 414.531 613.62 414.541 613.671 414.541C613.764 414.55 613.857 414.553 613.95 414.551C614.862 414.548 615.752 414.269 616.503 413.751C617.254 413.234 617.832 412.502 618.16 411.651L625.281 392.971L636.251 364.171L640.591 352.781C645.62 353.961 687.821 363.301 701.95 348.251C703.344 346.768 704.444 345.034 705.191 343.141C706.38 339.922 706.754 336.46 706.28 333.061Z" fill="#2F2E41"/>
<path d="M718.52 335.781C718.301 334.891 718.05 333.971 717.76 333.041L709.51 322.681L709.251 322.691C708.73 322.721 706.26 322.851 702.47 323.161C698.171 323.521 692.16 324.101 685.41 325.011C685.211 325.031 685.001 325.061 684.8 325.091C684.14 325.181 683.47 325.271 682.8 325.371V327.221H695.3C695.908 327.222 696.494 327.443 696.951 327.845C697.407 328.246 697.702 328.799 697.781 329.401C697.79 329.511 697.8 329.611 697.8 329.721C697.8 330.384 697.537 331.02 697.068 331.489C696.599 331.957 695.963 332.221 695.3 332.221H651.12C649.191 332.851 647.33 333.511 645.551 334.221C636.211 337.921 629.22 342.771 627.79 349.081C627.31 351.201 626.78 353.531 626.22 356.011C624.14 365.231 621.611 376.521 619.321 386.781V386.791C618.85 388.911 618.381 390.971 617.93 392.971C616.02 401.571 614.401 408.861 613.54 412.691C613.52 412.801 613.501 412.901 613.48 413.011V413.031C613.381 413.806 613.477 414.593 613.76 415.321L613.77 415.331V415.341C614.045 416.038 614.493 416.654 615.071 417.131C615.457 417.45 615.893 417.703 616.361 417.881L625.381 421.261C625.883 421.449 626.414 421.547 626.95 421.551C627.702 421.553 628.442 421.364 629.1 421.001C630.046 420.489 630.776 419.655 631.16 418.651L650.58 367.691L653.591 359.781C658.62 360.961 700.82 370.291 714.95 355.251C717.742 352.23 719.335 348.294 719.43 344.181C719.529 341.352 719.223 338.523 718.52 335.781V335.781Z" fill="#2F2E41"/>
<path d="M717.41 247.561C717.251 247.371 717.08 247.181 716.901 247.001C714.237 244.201 710.948 242.072 707.303 240.787C703.658 239.503 699.761 239.1 695.93 239.611C692.589 240.05 689.279 240.701 686.02 241.561C681.812 242.643 677.958 244.804 674.841 247.831C672.412 250.186 670.499 253.02 669.223 256.153C667.948 259.286 667.337 262.65 667.43 266.031C667.47 267.401 667.48 268.801 667.461 270.221C667.461 270.881 667.45 271.551 667.441 272.221H677.301C677.728 272.22 678.155 272.27 678.571 272.371C679.774 272.659 680.845 273.343 681.613 274.313C682.38 275.284 682.798 276.484 682.801 277.721V324.241C683.47 324.431 684.14 324.621 684.801 324.821C685.011 324.891 685.211 324.951 685.41 325.011C685.64 325.081 685.87 325.151 686.091 325.221C688.12 325.851 690.104 326.518 692.04 327.221H695.301C695.908 327.222 696.494 327.443 696.951 327.845C697.407 328.246 697.702 328.799 697.78 329.401C698.461 329.671 699.12 329.941 699.77 330.211C702.08 331.171 704.27 332.131 706.28 333.061C708.99 334.301 711.401 335.481 713.421 336.511C714.056 336.835 714.758 337.006 715.47 337.011C716.407 337.008 717.317 336.707 718.071 336.151C718.227 336.036 718.377 335.912 718.52 335.781C719.055 335.279 719.46 334.655 719.699 333.961C719.938 333.267 720.003 332.526 719.89 331.801C718.858 323.946 718.557 316.012 718.99 308.101C719.27 301.451 719.87 294.631 720.651 288.041C721.071 284.471 721.54 280.971 722.03 277.601C722.501 274.381 723.001 271.291 723.491 268.371C724.133 264.668 723.92 260.868 722.866 257.26C721.812 253.653 719.946 250.335 717.41 247.561Z" fill="#6C63FF"/>
<path d="M676.421 248.381C675.908 248.161 675.38 247.977 674.841 247.831C672.176 247.114 669.342 247.378 666.856 248.577C664.37 249.776 662.398 251.829 661.301 254.361L654.43 270.221L653.571 272.221H677.301C677.728 272.22 678.155 272.27 678.571 272.371L679.37 270.521L682.41 263.501C683.618 260.701 683.665 257.537 682.542 254.702C681.42 251.868 679.218 249.594 676.421 248.381V248.381Z" fill="#6C63FF"/>
<path d="M697.756 231.803C711.321 231.803 722.317 220.806 722.317 207.242C722.317 193.677 711.321 182.681 697.756 182.681C684.192 182.681 673.195 193.677 673.195 207.242C673.195 220.806 684.192 231.803 697.756 231.803Z" fill="#FFB8B8"/>
<path d="M722.03 277.601L708.01 277.981L706.99 287.831L706.76 290.111L684.8 299.971L682.8 300.871V318.401L684.8 317.831L691.12 316.031H691.151L718.99 308.101L719.31 308.011C721.56 307.362 723.54 306.004 724.956 304.139C726.372 302.274 727.149 300.002 727.171 297.661L727.24 286.031L727.3 277.461L722.03 277.601Z" fill="#FFB8B8"/>
<path d="M726.591 258.121C726.498 256.614 726.109 255.139 725.447 253.782C724.784 252.424 723.861 251.211 722.73 250.21C720.444 248.189 717.45 247.159 714.405 247.346C711.361 247.533 708.515 248.922 706.494 251.207C704.474 253.492 703.444 256.486 703.631 259.531L705.16 284.491C705.202 285.148 705.387 285.788 705.703 286.365C706.02 286.942 706.459 287.443 706.99 287.831C707.836 288.461 708.878 288.77 709.93 288.701L720.651 288.041L723.901 287.841C724.493 287.812 725.072 287.663 725.605 287.404C726.138 287.144 726.613 286.779 727.001 286.331C727.087 286.236 727.167 286.136 727.24 286.031C727.876 285.18 728.188 284.131 728.12 283.071L726.591 258.121Z" fill="#6C63FF"/>
<path d="M686.091 325.221H684.801V325.091C684.14 325.181 683.47 325.271 682.801 325.371V327.221H692.04C690.1 326.521 688.117 325.854 686.091 325.221ZM686.091 325.221H684.801V325.091C684.14 325.181 683.47 325.271 682.801 325.371V327.221H692.04C690.1 326.521 688.117 325.854 686.091 325.221ZM695.301 325.221H684.801V277.721C684.797 276.095 684.266 274.514 683.286 273.215C682.307 271.917 680.933 270.972 679.37 270.521C678.699 270.319 678.002 270.218 677.301 270.221H588.301C586.312 270.224 584.406 271.014 583 272.42C581.594 273.826 580.803 275.733 580.801 277.721V326.721C580.801 328.71 581.592 330.617 582.998 332.024C584.404 333.43 586.312 334.22 588.301 334.221H695.301C696.408 334.219 697.476 333.809 698.301 333.07C699.126 332.33 699.649 331.312 699.77 330.211C699.791 330.049 699.801 329.885 699.801 329.721C699.799 328.528 699.324 327.385 698.481 326.541C697.637 325.698 696.493 325.223 695.3 325.221H695.301ZM697.801 329.721C697.8 330.384 697.537 331.02 697.068 331.489C696.599 331.957 695.963 332.221 695.301 332.221H588.301C586.842 332.22 585.444 331.641 584.412 330.609C583.381 329.578 582.801 328.18 582.801 326.721V277.721C582.801 276.263 583.381 274.864 584.412 273.833C585.444 272.802 586.842 272.222 588.301 272.221H677.301C677.728 272.22 678.155 272.27 678.571 272.371C679.774 272.659 680.845 273.343 681.613 274.313C682.38 275.284 682.798 276.484 682.801 277.721V327.221H695.301C695.908 327.222 696.494 327.443 696.951 327.845C697.407 328.246 697.702 328.799 697.781 329.401C697.79 329.511 697.8 329.611 697.8 329.721H697.801ZM686.091 325.221H684.801V325.091C684.14 325.181 683.47 325.271 682.801 325.371V327.221H692.04C690.1 326.521 688.117 325.854 686.091 325.221Z" fill="#3F3D56"/>
<path d="M632.797 308.223C636.111 308.223 638.797 305.536 638.797 302.223C638.797 298.909 636.111 296.223 632.797 296.223C629.484 296.223 626.797 298.909 626.797 302.223C626.797 305.536 629.484 308.223 632.797 308.223Z" fill="#6C63FF"/>
<path d="M692.512 197.499C686.807 202.595 679.159 208.065 672.173 204.331C667.586 201.88 665.544 196.503 666.615 191.414C668.542 182.262 676.454 177.317 684.114 173.319C694.073 168.122 705.063 163.591 716.215 164.942C727.366 166.293 738.262 175.507 737.735 186.728C737.312 195.752 729.943 204.17 732.276 212.897C734.623 221.68 745.284 225.081 754.365 225.528C763.445 225.975 773.442 225.201 780.645 230.748C789.834 237.824 789.687 252.62 783.145 262.197C776.604 271.774 765.557 277.163 754.707 281.259C740.331 286.687 724.529 290.609 709.69 286.618C694.851 282.628 681.859 268.391 684.036 253.179C684.955 246.754 688.336 240.986 691.598 235.375C694.86 229.763 698.142 223.912 698.827 217.458C699.397 212.079 697.689 206.141 693.722 202.677C693.004 202.073 692.495 201.258 692.27 200.347C692.044 199.437 692.112 198.479 692.465 197.61L692.512 197.499Z" fill="#2F2E41"/>
<path d="M40.43 353.758V355.758C40.4329 359.073 41.7507 362.25 44.0943 364.594C46.4379 366.938 49.6157 368.255 52.93 368.258H142.93C146.245 368.257 149.424 366.94 151.767 364.596C154.111 362.252 155.429 359.073 155.43 355.758V353.758C155.436 350.833 154.409 348 152.53 345.758C151.904 345.014 151.196 344.343 150.42 343.758C150.42 343.758 100.94 342.638 100.94 341.258H52.93C49.6162 341.263 46.4394 342.581 44.0962 344.925C41.753 347.268 40.4346 350.445 40.43 353.758V353.758Z" fill="#3F3D56"/>
<path d="M90.9348 451.762H103.935L103.935 367.762H90.9348L90.9348 451.762Z" fill="#3F3D56"/>
<path d="M53.9348 451.305C53.9348 452.71 73.6343 451.848 97.9348 451.848C122.235 451.848 141.935 452.71 141.935 451.305C141.935 449.9 122.235 438.762 97.9348 438.762C73.6343 438.762 53.9348 449.9 53.9348 451.305Z" fill="#3F3D56"/>
<path d="M163.53 441.018H175.79L181.622 393.73L163.528 393.731L163.53 441.018Z" fill="#A0616A"/>
<path d="M199.434 452.401L160.904 452.403L160.903 437.516L184.547 437.515C188.495 437.515 192.282 439.083 195.074 441.875C197.866 444.666 199.434 448.453 199.434 452.401L199.434 452.401Z" fill="#2F2E41"/>
<path d="M182.668 434.176L194.365 430.505L185.773 383.64L168.509 389.058L182.668 434.176Z" fill="#A0616A"/>
<path d="M220.333 434.287L183.57 445.824L179.112 431.62L201.672 424.541C205.439 423.359 209.521 423.722 213.021 425.549C216.52 427.377 219.151 430.52 220.333 434.287L220.333 434.287Z" fill="#2F2E41"/>
<path d="M174.466 412.411L152.039 353.54C147.007 354.722 104.812 364.059 90.6798 349.012C85.8365 343.854 84.892 336.383 87.8722 326.804L96.1198 316.439L96.3761 316.453C99.4945 316.617 172.811 320.727 177.837 342.842C182.075 361.486 189.814 396.247 192.085 406.457C192.315 407.515 192.157 408.62 191.641 409.572C191.124 410.523 190.283 411.257 189.271 411.641L180.251 415.022C179.749 415.212 179.216 415.309 178.679 415.309C177.766 415.308 176.875 415.031 176.123 414.514C175.37 413.997 174.793 413.264 174.466 412.411V412.411Z" fill="#2F2E41"/>
<path d="M161.466 419.411L139.039 360.54C134.007 361.722 91.8121 371.058 77.6798 356.012C72.8365 350.854 71.892 343.383 74.8722 333.804L83.1198 323.439L83.3761 323.453C86.4945 323.617 159.811 327.727 164.837 349.842C169.075 368.486 176.814 403.247 179.085 413.457C179.315 414.515 179.157 415.62 178.641 416.572C178.124 417.523 177.283 418.257 176.271 418.641L167.251 422.022C166.749 422.212 166.216 422.309 165.679 422.309C164.766 422.308 163.875 422.031 163.123 421.514C162.37 420.997 161.793 420.264 161.466 419.411V419.411Z" fill="#2F2E41"/>
<path d="M141.292 305.193C137.968 305.192 134.702 304.328 131.812 302.685C128.923 301.042 126.509 298.677 124.808 295.822L117.685 283.756L134.615 274.503L141.803 284.359L190.577 279.22C190.814 278.791 191.081 278.378 191.376 277.986C192.312 276.755 193.496 275.734 194.853 274.991C196.21 274.248 197.707 273.798 199.249 273.672C200.798 273.539 202.357 273.739 203.822 274.259C205.286 274.779 206.623 275.606 207.742 276.684C209.535 278.405 210.695 280.68 211.033 283.142C211.37 285.605 210.866 288.109 209.602 290.248C208.811 291.581 207.747 292.732 206.48 293.625C205.213 294.518 203.772 295.134 202.251 295.432C200.729 295.729 199.162 295.702 197.652 295.351C196.142 295.001 194.723 294.336 193.488 293.399C193.202 293.18 192.927 292.946 192.665 292.699L145.951 304.609C144.428 304.997 142.863 305.194 141.292 305.193V305.193Z" fill="#A0616A"/>
<path d="M74.5551 336.912C73.8801 336.426 73.3529 335.762 73.032 334.994C72.711 334.227 72.6087 333.386 72.7365 332.563C75.519 314.221 72.3175 287.944 69.1417 269.131C68.4916 265.314 68.7446 261.397 69.8803 257.695C71.0161 253.993 73.003 250.609 75.682 247.813C78.361 245.017 81.6575 242.888 85.3075 241.595C88.9576 240.302 92.8596 239.883 96.7011 240.369C100.043 240.811 103.354 241.463 106.614 242.323V242.323C112.029 243.687 116.818 246.852 120.195 251.299C123.572 255.746 125.336 261.209 125.196 266.791C124.721 284.945 128.407 307.597 130.014 316.492C130.124 317.103 130.106 317.73 129.963 318.334C129.82 318.938 129.553 319.506 129.181 320.003C128.815 320.494 128.351 320.904 127.818 321.205C127.285 321.507 126.695 321.693 126.085 321.753C108.277 323.57 89.0728 332.255 79.2105 337.269C78.5767 337.597 77.8743 337.768 77.161 337.77C76.2234 337.767 75.3109 337.467 74.5551 336.912Z" fill="#CCCCCC"/>
<path d="M122.626 289.601C122.075 289.384 121.573 289.061 121.149 288.65C120.724 288.238 120.386 287.746 120.152 287.203L110.221 264.261C109.619 262.875 109.297 261.383 109.272 259.873C109.248 258.362 109.521 256.861 110.076 255.456C110.632 254.051 111.459 252.769 112.51 251.684C113.561 250.598 114.816 249.731 116.203 249.13C117.589 248.53 119.081 248.209 120.592 248.186C122.102 248.162 123.603 248.437 125.008 248.993C126.412 249.55 127.693 250.378 128.778 251.43C129.862 252.482 130.729 253.738 131.328 255.125L141.26 278.067C141.732 279.163 141.751 280.401 141.312 281.51C140.873 282.619 140.012 283.509 138.918 283.984L126.07 289.546C125.528 289.782 124.944 289.909 124.353 289.918C123.762 289.928 123.175 289.82 122.626 289.601H122.626Z" fill="#CCCCCC"/>
<path d="M94.8734 232.564C108.438 232.564 119.434 221.568 119.434 208.003C119.434 194.439 108.438 183.442 94.8734 183.442C81.3087 183.442 70.3124 194.439 70.3124 208.003C70.3124 221.568 81.3087 232.564 94.8734 232.564Z" fill="#A0616A"/>
<path d="M80.0306 229.824C79.6827 230.226 79.2578 230.553 78.781 230.788C78.3041 231.022 77.7851 231.159 77.2546 231.19C76.7241 231.22 76.1929 231.144 75.6923 230.965C75.1918 230.787 74.7321 230.51 74.3405 230.151C68.8638 225.718 64.5202 220.045 61.6682 213.602C58.4751 205.991 58.0072 196.703 61.6412 189.569C64.7132 183.538 70.2278 179.699 75.7331 176.562C77.8436 175.232 80.1565 174.254 82.5809 173.668C83.8055 173.39 85.0748 173.371 86.3069 173.613C87.539 173.856 88.7068 174.353 89.7349 175.074C90.8259 175.904 91.6702 177.015 92.1773 178.288C92.6843 179.562 92.835 180.949 92.613 182.302C95.1312 178.984 98.5261 176.436 102.415 174.945C104.801 173.918 107.467 173.739 109.969 174.439C113.504 175.619 116.121 179.189 117.578 183.025C118.755 185.962 119.187 189.145 118.833 192.289C118.679 193.79 118.221 195.245 117.487 196.563C116.753 197.882 115.759 199.038 114.564 199.96C111.68 201.95 107.965 201.748 104.611 200.867C101.257 199.987 98.002 198.493 94.5896 198.077C91.1772 197.661 87.3954 198.563 85.3623 201.607C83.9305 203.75 83.5929 206.574 83.3008 209.265L81.7813 223.264C81.674 225.267 81.2425 227.239 80.5037 229.103C80.3787 229.364 80.2196 229.606 80.0306 229.824V229.824Z" fill="#2F2E41"/>
<path d="M168.868 381.094H128.996C128.349 381.096 127.711 380.951 127.13 380.669C126.548 380.387 126.039 379.977 125.64 379.468C125.233 378.953 124.948 378.351 124.808 377.709C124.669 377.067 124.677 376.402 124.833 375.763C128.563 360.141 128.563 343.86 124.833 328.238C124.677 327.6 124.668 326.935 124.808 326.293C124.948 325.651 125.233 325.049 125.64 324.534C126.039 324.025 126.548 323.614 127.13 323.333C127.711 323.051 128.349 322.905 128.996 322.907H168.868C169.887 322.91 170.872 323.273 171.648 323.933C172.424 324.594 172.94 325.508 173.105 326.513C175.706 343.405 175.706 360.596 173.105 377.489C172.94 378.494 172.424 379.408 171.648 380.068C170.872 380.729 169.887 381.092 168.868 381.094V381.094Z" fill="#CCCCCC"/>
<path d="M138.266 344.584V343.412C138.266 342.617 138.583 341.854 139.145 341.292C139.708 340.729 140.47 340.413 141.266 340.412H162.189C162.985 340.413 163.747 340.729 164.31 341.292C164.872 341.854 165.188 342.617 165.189 343.412V344.584C165.188 345.379 164.872 346.142 164.31 346.704C163.747 347.267 162.985 347.583 162.189 347.584H141.266C140.47 347.583 139.708 347.267 139.145 346.704C138.583 346.142 138.266 345.379 138.266 344.584V344.584Z" fill="white"/>
<path d="M138.266 356.929V355.756C138.266 354.961 138.583 354.199 139.145 353.636C139.708 353.074 140.47 352.757 141.266 352.756H162.189C162.985 352.757 163.747 353.074 164.31 353.636C164.872 354.199 165.188 354.961 165.189 355.756V356.929C165.188 357.724 164.872 358.487 164.31 359.049C163.747 359.612 162.985 359.928 162.189 359.929H141.266C140.47 359.928 139.708 359.612 139.145 359.049C138.583 358.487 138.266 357.724 138.266 356.929Z" fill="white"/>
<path d="M151.128 308.841C150.714 308.317 150.425 307.706 150.282 307.053C150.14 306.4 150.149 305.724 150.307 305.075C154.099 289.196 154.098 272.648 150.307 256.769C150.149 256.12 150.14 255.444 150.282 254.791C150.425 254.139 150.714 253.527 151.128 253.003C151.533 252.487 152.051 252.069 152.642 251.783C153.233 251.497 153.882 251.349 154.538 251.351H195.066C196.101 251.353 197.103 251.722 197.891 252.393C198.68 253.065 199.205 253.994 199.372 255.016C202.016 272.186 202.016 289.659 199.372 306.829C199.205 307.851 198.68 308.78 197.891 309.451C197.103 310.122 196.101 310.492 195.066 310.494H154.538C153.882 310.496 153.233 310.348 152.642 310.061C152.051 309.775 151.533 309.358 151.128 308.841Z" fill="#6C63FF"/>
<path d="M187.245 273.173H165.896C165.1 273.172 164.338 272.855 163.775 272.293C163.213 271.73 162.897 270.968 162.896 270.173V268.899C162.897 268.103 163.213 267.341 163.775 266.778C164.338 266.216 165.1 265.899 165.896 265.899H187.245C188.04 265.899 188.803 266.216 189.365 266.778C189.928 267.341 190.244 268.103 190.245 268.899V270.173C190.244 270.968 189.928 271.731 189.365 272.293C188.803 272.855 188.04 273.172 187.245 273.173V273.173Z" fill="white"/>
<path d="M187.245 285.72H165.896C165.1 285.719 164.338 285.403 163.775 284.84C163.213 284.278 162.897 283.515 162.896 282.72V281.446C162.897 280.651 163.213 279.888 163.775 279.326C164.338 278.763 165.1 278.447 165.896 278.446H187.245C188.04 278.447 188.803 278.763 189.365 279.326C189.928 279.888 190.244 280.651 190.245 281.446V282.72C190.244 283.515 189.928 284.278 189.365 284.84C188.803 285.403 188.04 285.719 187.245 285.72V285.72Z" fill="white"/>
<path d="M132.533 330.839C131.073 330.329 129.736 329.517 128.611 328.456C127.485 327.395 126.595 326.109 125.999 324.682C125.862 324.348 125.742 324.008 125.64 323.663L73.3181 308.769C71.0697 308.12 69.0905 306.763 67.6744 304.9C66.2583 303.037 65.4807 300.767 65.457 298.427L65.3293 278.225L84.6152 278.741L85.872 290.875L130.613 310.962C131.034 310.711 131.472 310.489 131.924 310.298H131.924C133.573 309.607 135.364 309.327 137.144 309.484C138.924 309.64 140.64 310.227 142.142 311.194C143.645 312.162 144.889 313.481 145.768 315.036C146.647 316.592 147.134 318.339 147.187 320.125C147.24 321.912 146.857 323.684 146.072 325.289C145.287 326.894 144.123 328.284 142.68 329.339C141.237 330.394 139.56 331.082 137.792 331.343C136.024 331.604 134.219 331.431 132.533 330.839V330.839Z" fill="#A0616A"/>
<path d="M65.6293 287.094C65.2364 286.652 64.9352 286.136 64.743 285.577C64.5507 285.018 64.4713 284.426 64.5094 283.836L66.0434 258.883C66.1337 257.374 66.5206 255.898 67.1821 254.538C67.8436 253.179 68.7667 251.963 69.8985 250.961C71.0302 249.959 72.3486 249.189 73.778 248.697C75.2074 248.205 76.7198 247.999 78.2288 248.092C79.7377 248.185 81.2135 248.574 82.5718 249.238C83.9301 249.902 85.1442 250.827 86.1445 251.961C87.1449 253.094 87.912 254.414 88.4019 255.844C88.8917 257.274 89.0948 258.787 88.9994 260.296L87.4657 285.248C87.3909 286.439 86.847 287.551 85.9533 288.342C85.0595 289.132 83.8889 289.535 82.6982 289.464L68.7246 288.604C68.1344 288.57 67.5569 288.419 67.0255 288.159C66.4942 287.9 66.0196 287.538 65.6293 287.094H65.6293Z" fill="#CCCCCC"/>
<path d="M290.522 153.064H208.522C206.136 153.061 203.848 152.112 202.161 150.425C200.474 148.738 199.525 146.45 199.522 144.064V55.0639C199.525 52.6777 200.474 50.3902 202.161 48.7029C203.848 47.0157 206.136 46.0666 208.522 46.0639H290.522C292.908 46.0666 295.196 47.0157 296.883 48.7029C298.57 50.3902 299.519 52.6777 299.522 55.0639V144.064C299.519 146.45 298.57 148.738 296.883 150.425C295.196 152.112 292.908 153.061 290.522 153.064V153.064ZM208.522 48.0639C206.666 48.0659 204.887 48.8041 203.575 50.1164C202.262 51.4287 201.524 53.208 201.522 55.0639V144.064C201.524 145.92 202.262 147.699 203.575 149.011C204.887 150.324 206.666 151.062 208.522 151.064H290.522C292.378 151.062 294.157 150.324 295.47 149.011C296.782 147.699 297.52 145.92 297.522 144.064V55.0639C297.52 53.208 296.782 51.4287 295.47 50.1164C294.157 48.8041 292.378 48.0659 290.522 48.0639H208.522Z" fill="#3F3D56"/>
<path d="M440.522 153.064H358.522C356.136 153.061 353.848 152.112 352.161 150.425C350.474 148.738 349.525 146.45 349.522 144.064V55.0639C349.525 52.6777 350.474 50.3902 352.161 48.7029C353.848 47.0157 356.136 46.0666 358.522 46.0639H440.522C442.908 46.0666 445.196 47.0157 446.883 48.7029C448.57 50.3902 449.519 52.6777 449.522 55.0639V144.064C449.519 146.45 448.57 148.738 446.883 150.425C445.196 152.112 442.908 153.061 440.522 153.064V153.064ZM358.522 48.0639C356.666 48.0659 354.887 48.8041 353.575 50.1164C352.262 51.4287 351.524 53.208 351.522 55.0639V144.064C351.524 145.92 352.262 147.699 353.575 149.011C354.887 150.324 356.666 151.062 358.522 151.064H440.522C442.378 151.062 444.157 150.324 445.47 149.011C446.782 147.699 447.52 145.92 447.522 144.064V55.0639C447.52 53.208 446.782 51.4287 445.47 50.1164C444.157 48.8041 442.378 48.0659 440.522 48.0639H358.522Z" fill="#3F3D56"/>
<path d="M225.037 83.0639H217.037C215.844 83.0625 214.7 82.588 213.857 81.7444C213.013 80.9007 212.538 79.7569 212.537 78.5639V70.5639C212.538 69.3708 213.013 68.227 213.857 67.3833C214.7 66.5397 215.844 66.0652 217.037 66.0639H225.037C226.23 66.0652 227.374 66.5397 228.218 67.3833C229.061 68.227 229.536 69.3708 229.537 70.5639V78.5639C229.536 79.7569 229.061 80.9007 228.218 81.7444C227.374 82.588 226.23 83.0625 225.037 83.0639V83.0639Z" fill="#6C63FF"/>
<path d="M225.037 108.064H217.037C215.844 108.063 214.7 107.588 213.857 106.744C213.013 105.901 212.538 104.757 212.537 103.564V95.5639C212.538 94.3708 213.013 93.227 213.857 92.3833C214.7 91.5397 215.844 91.0652 217.037 91.0639H225.037C226.23 91.0652 227.374 91.5397 228.218 92.3833C229.061 93.227 229.536 94.3708 229.537 95.5639V103.564C229.536 104.757 229.061 105.901 228.218 106.744C227.374 107.588 226.23 108.063 225.037 108.064V108.064Z" fill="#CCCCCC"/>
<path d="M283.507 78.2008H246.158C245.362 78.1999 244.6 77.8836 244.037 77.3212C243.475 76.7588 243.159 75.9962 243.158 75.2008V73.9269C243.159 73.1315 243.475 72.3689 244.037 71.8065C244.6 71.2441 245.362 70.9278 246.158 70.9269H283.507C284.302 70.9278 285.065 71.2441 285.627 71.8065C286.19 72.3689 286.506 73.1315 286.507 73.9269V75.2008C286.506 75.9962 286.19 76.7588 285.627 77.3212C285.065 77.8836 284.302 78.1999 283.507 78.2008V78.2008Z" fill="#6C63FF"/>
<path d="M375.727 81.4954H367.727C366.534 81.494 365.39 81.0195 364.546 80.1759C363.703 79.3323 363.228 78.1884 363.227 76.9954V68.9954C363.228 67.8023 363.703 66.6585 364.546 65.8149C365.39 64.9712 366.534 64.4967 367.727 64.4954H375.727C376.92 64.4967 378.064 64.9712 378.907 65.8149C379.751 66.6585 380.225 67.8023 380.227 68.9954V76.9954C380.225 78.1884 379.751 79.3323 378.907 80.1759C378.064 81.0195 376.92 81.494 375.727 81.4954V81.4954Z" fill="#CCCCCC"/>
<path d="M434.197 76.6323H396.847C396.052 76.6315 395.289 76.3151 394.727 75.7527C394.165 75.1903 393.848 74.4277 393.847 73.6323V72.3584C393.848 71.563 394.165 70.8005 394.727 70.238C395.289 69.6756 396.052 69.3593 396.847 69.3584H434.197C434.992 69.3593 435.755 69.6756 436.317 70.238C436.88 70.8005 437.196 71.563 437.197 72.3584V73.6323C437.196 74.4277 436.88 75.1903 436.317 75.7527C435.755 76.3151 434.992 76.6315 434.197 76.6323Z" fill="#CCCCCC"/>
<path d="M434.197 100.632H364.847C364.052 100.631 363.289 100.315 362.727 99.7527C362.165 99.1903 361.848 98.4277 361.847 97.6323V96.3584C361.848 95.563 362.165 94.8005 362.727 94.238C363.289 93.6756 364.052 93.3593 364.847 93.3584H434.197C434.992 93.3593 435.755 93.6756 436.317 94.238C436.88 94.8005 437.196 95.563 437.197 96.3584V97.6323C437.196 98.4277 436.88 99.1903 436.317 99.7527C435.755 100.315 434.992 100.631 434.197 100.632V100.632Z" fill="#6C63FF"/>
<path d="M434.197 117.632H364.847C364.052 117.631 363.289 117.315 362.727 116.753C362.165 116.19 361.848 115.428 361.847 114.632V113.358C361.848 112.563 362.165 111.8 362.727 111.238C363.289 110.676 364.052 110.359 364.847 110.358H434.197C434.992 110.359 435.755 110.676 436.317 111.238C436.88 111.8 437.196 112.563 437.197 113.358V114.632C437.196 115.428 436.88 116.19 436.317 116.753C435.755 117.315 434.992 117.631 434.197 117.632V117.632Z" fill="#CCCCCC"/>
<path d="M434.197 134.632H364.847C364.052 134.631 363.289 134.315 362.727 133.753C362.165 133.19 361.848 132.428 361.847 131.632V130.358C361.848 129.563 362.165 128.8 362.727 128.238C363.289 127.676 364.052 127.359 364.847 127.358H434.197C434.992 127.359 435.755 127.676 436.317 128.238C436.88 128.8 437.196 129.563 437.197 130.358V131.632C437.196 132.428 436.88 133.19 436.317 133.753C435.755 134.315 434.992 134.631 434.197 134.632V134.632Z" fill="#CCCCCC"/>
<path d="M590.522 153.064H508.522C506.136 153.061 503.848 152.112 502.161 150.425C500.474 148.738 499.525 146.45 499.522 144.064V55.0639C499.525 52.6777 500.474 50.3902 502.161 48.7029C503.848 47.0157 506.136 46.0666 508.522 46.0639H590.522C592.908 46.0666 595.196 47.0157 596.883 48.7029C598.57 50.3902 599.519 52.6777 599.522 55.0639V144.064C599.519 146.45 598.57 148.738 596.883 150.425C595.196 152.112 592.908 153.061 590.522 153.064V153.064ZM508.522 48.0639C506.666 48.0659 504.887 48.8041 503.575 50.1164C502.262 51.4287 501.524 53.208 501.522 55.0639V144.064C501.524 145.92 502.262 147.699 503.575 149.011C504.887 150.324 506.666 151.062 508.522 151.064H590.522C592.378 151.062 594.157 150.324 595.47 149.011C596.782 147.699 597.52 145.92 597.522 144.064V55.0639C597.52 53.208 596.782 51.4287 595.47 50.1164C594.157 48.8041 592.378 48.0659 590.522 48.0639H508.522Z" fill="#3F3D56"/>
<path d="M584.197 76.6323H546.847C546.052 76.6315 545.289 76.3151 544.727 75.7527C544.165 75.1903 543.848 74.4277 543.847 73.6323V72.3584C543.848 71.563 544.165 70.8005 544.727 70.238C545.289 69.6756 546.052 69.3593 546.847 69.3584H584.197C584.992 69.3593 585.755 69.6756 586.317 70.238C586.88 70.8005 587.196 71.563 587.197 72.3584V73.6323C587.196 74.4277 586.88 75.1903 586.317 75.7527C585.755 76.3151 584.992 76.6315 584.197 76.6323V76.6323Z" fill="#CCCCCC"/>
<path d="M584.197 100.632H514.847C514.052 100.631 513.289 100.315 512.727 99.7527C512.165 99.1903 511.848 98.4277 511.847 97.6323V96.3584C511.848 95.563 512.165 94.8005 512.727 94.238C513.289 93.6756 514.052 93.3593 514.847 93.3584H584.197C584.992 93.3593 585.755 93.6756 586.317 94.238C586.88 94.8005 587.196 95.563 587.197 96.3584V97.6323C587.196 98.4277 586.88 99.1903 586.317 99.7527C585.755 100.315 584.992 100.631 584.197 100.632Z" fill="#CCCCCC"/>
<path d="M584.197 117.632H514.847C514.052 117.631 513.289 117.315 512.727 116.753C512.165 116.19 511.848 115.428 511.847 114.632V113.358C511.848 112.563 512.165 111.8 512.727 111.238C513.289 110.676 514.052 110.359 514.847 110.358H584.197C584.992 110.359 585.755 110.676 586.317 111.238C586.88 111.8 587.196 112.563 587.197 113.358V114.632C587.196 115.428 586.88 116.19 586.317 116.753C585.755 117.315 584.992 117.631 584.197 117.632Z" fill="#CCCCCC"/>
<path d="M584.197 134.632H514.847C514.052 134.631 513.289 134.315 512.727 133.753C512.165 133.19 511.848 132.428 511.847 131.632V130.358C511.848 129.563 512.165 128.8 512.727 128.238C513.289 127.676 514.052 127.359 514.847 127.358H584.197C584.992 127.359 585.755 127.676 586.317 128.238C586.88 128.8 587.196 129.563 587.197 130.358V131.632C587.196 132.428 586.88 133.19 586.317 133.753C585.755 134.315 584.992 134.631 584.197 134.632Z" fill="#CCCCCC"/>
<path d="M283.507 103.201H246.158C245.362 103.2 244.6 102.884 244.037 102.321C243.475 101.759 243.159 100.996 243.158 100.201V98.9269C243.159 98.1315 243.475 97.3689 244.037 96.8065C244.6 96.2441 245.362 95.9278 246.158 95.9269H283.507C284.302 95.9278 285.065 96.2441 285.627 96.8065C286.19 97.3689 286.506 98.1315 286.507 98.9269V100.201C286.506 100.996 286.19 101.759 285.627 102.321C285.065 102.884 284.302 103.2 283.507 103.201Z" fill="#CCCCCC"/>
<path d="M225.037 133.064H217.037C215.844 133.063 214.7 132.588 213.857 131.744C213.013 130.901 212.538 129.757 212.537 128.564V120.564C212.538 119.371 213.013 118.227 213.857 117.383C214.7 116.54 215.844 116.065 217.037 116.064H225.037C226.23 116.065 227.374 116.54 228.218 117.383C229.061 118.227 229.536 119.371 229.537 120.564V128.564C229.536 129.757 229.061 130.901 228.218 131.744C227.374 132.588 226.23 133.063 225.037 133.064V133.064Z" fill="#CCCCCC"/>
<path d="M283.507 128.201H246.158C245.362 128.2 244.6 127.884 244.037 127.321C243.475 126.759 243.159 125.996 243.158 125.201V123.927C243.159 123.131 243.475 122.369 244.037 121.807C244.6 121.244 245.362 120.928 246.158 120.927H283.507C284.302 120.928 285.065 121.244 285.627 121.807C286.19 122.369 286.506 123.131 286.507 123.927V125.201C286.506 125.996 286.19 126.759 285.627 127.321C285.065 127.884 284.302 128.2 283.507 128.201Z" fill="#CCCCCC"/>
<path d="M530.519 72.0639C530.519 72.0408 530.522 72.0185 530.522 71.9954C530.522 70.8135 530.289 69.6432 529.837 68.5512C529.385 67.4593 528.722 66.4671 527.886 65.6314C527.05 64.7957 526.058 64.1327 524.966 63.6804C523.874 63.2281 522.704 62.9954 521.522 62.9954V72.0639H530.519Z" fill="#6C63FF"/>
<path d="M520.522 73.0639V63.9954C518.745 63.9948 517.007 64.5203 515.528 65.5059C514.049 66.4914 512.895 67.8928 512.211 69.5332C511.528 71.1737 511.345 72.9799 511.687 74.7241C512.028 76.4682 512.878 78.0723 514.13 79.334C515.381 80.5957 516.979 81.4585 518.72 81.8138C520.461 82.169 522.269 82.0007 523.915 81.3301C525.561 80.6595 526.971 79.5166 527.968 78.0455C528.966 76.5745 529.505 74.8411 529.519 73.0639H520.522Z" fill="#CCCCCC"/>
</g>
<defs>
<clipPath id="clip0">
<rect width="787.827" height="453.112" fill="white"/>
</clipPath>
</defs>
</svg>
